<svg xmlns="http://www.w3.org/2000/svg" aria-hidden="true" overflow="hidden" style="position:absolute;width:0;height:0">
  <defs>
    <symbol id="wbsico-author" viewBox="0 0 16 18">
      <path d="M7.88 0a4.5 4.5 0 0 0-4.5 4.5v1.13a4.5 4.5 0 0 0 9 0V4.5A4.5 4.5 0 0 0 7.88 0zm4.54 10.6a6.69 6.69 0 0 1-9.1 0h.01C1.35 11.26 0 12.72 0 14.63V18h15.75v-3.38c0-1.9-1.35-3.37-3.33-4.01z"/>
    </symbol>
    <symbol id="wbsico-close" viewBox="0 0 18 18">
      <path d="M17.61.39a1.24 1.24 0 0 0-1.8 0L9 7.2 2.19.39C1.67-.13.9-.13.39.39s-.52 1.28 0 1.8L7.2 9 .39 15.81a1.24 1.24 0 0 0 0 1.8c.25.26.51.39.9.39s.64-.13.9-.39L9 10.8l6.81 6.81c.26.26.65.39.9.39s.65-.13.9-.39c.52-.51.52-1.28 0-1.8L10.8 9l6.81-6.81c.52-.52.52-1.29 0-1.8z"/>
    </symbol>
    <symbol id="wbsico-comment" viewBox="0 0 18 18">
      <path d="M9 0C4.05 0 0 3.49 0 7.88s4.05 7.87 9 7.87c.45 0 .9 0 1.24-.11L15.75 18v-4.95A7.32 7.32 0 0 0 18 7.88C18 3.48 13.95 0 9 0z"/>
    </symbol>
    <symbol id="wbsico-confirm" viewBox="0 0 18 18">
      <path d="M7.88 12.82L4.04 9l1.57-1.57 2.25 2.25 4.5-4.5 1.58 1.57-6.08 6.08zM9 0C4.05 0 0 4.05 0 9s4.05 9 9 9 9-4.05 9-9-4.05-9-9-9z"/>
    </symbol>
    <symbol id="wbsico-donate" viewBox="0 0 9 18">
      <path d="M5.63 8.1V4.61c.67.23 1.12.9 1.12 1.58S7.2 7.3 7.88 7.3 9 6.86 9 6.2a3.8 3.8 0 0 0-3.38-3.83V1.12C5.63.45 5.17 0 4.5 0S3.37.45 3.37 1.12v1.24A3.8 3.8 0 0 0 0 6.2C0 8.55 1.8 9.45 3.38 9.9v3.49c-.68-.23-1.13-.9-1.13-1.58S1.8 10.7 1.12 10.7 0 11.14 0 11.8a3.8 3.8 0 0 0 3.38 3.83v1.24c0 .67.45 1.12 1.12 1.12s1.13-.45 1.13-1.12v-1.24A3.88 3.88 0 0 0 9 11.8c0-2.36-1.8-3.26-3.38-3.7zM2.25 6.19c0-.79.45-1.35 1.13-1.58v2.93c-.8-.34-1.13-.68-1.13-1.35zm3.38 7.2v-2.93c.78.34 1.12.68 1.12 1.35 0 .79-.45 1.35-1.13 1.58z"/>
    </symbol>
    <symbol id="wbsico-download" viewBox="0 0 25 18">
      <path d="M12.7 14.82L7.42 9.53h4.24V5.3h2.11v4.23H18l-5.3 5.3zm8.34-7.32a9 9 0 0 0-17.78.3v.03A5.3 5.3 0 0 0 5.26 18h14.86a5.3 5.3 0 0 0 .95-10.5h-.03z"/>
    </symbol>
    <symbol id="wbsico-list-a" viewBox="0 0 18 18">
      <path d="M6.75 0H1.12C.45 0 0 .45 0 1.13v5.62c0 .68.45 1.13 1.13 1.13h5.62c.68 0 1.13-.45 1.13-1.13V1.12C7.88.45 7.42 0 6.75 0zM16.88 0h-5.63c-.68 0-1.13.45-1.13 1.13v5.62c0 .68.46 1.13 1.13 1.13h5.63c.67 0 1.12-.45 1.12-1.13V1.12C18 .45 17.55 0 16.87 0zM6.75 10.13H1.12c-.67 0-1.12.44-1.12 1.12v5.63C0 17.55.45 18 1.13 18h5.62c.68 0 1.13-.45 1.13-1.13v-5.62c0-.68-.45-1.13-1.13-1.13zM16.88 10.13h-5.63c-.68 0-1.13.44-1.13 1.12v5.63c0 .67.46 1.12 1.13 1.12h5.63c.67 0 1.12-.45 1.12-1.13v-5.62c0-.68-.45-1.13-1.13-1.13z"/>
    </symbol>
    <symbol id="wbsico-list-b" viewBox="0 0 18 18">
      <path d="M6.75 0H1.12C.45 0 0 .45 0 1.13v5.62c0 .68.45 1.13 1.13 1.13h5.62c.68 0 1.13-.45 1.13-1.13V1.12C7.88.45 7.42 0 6.75 0zM6.75 10.13H1.12c-.67 0-1.12.44-1.12 1.12v5.63C0 17.55.45 18 1.13 18h5.62c.68 0 1.13-.45 1.13-1.13v-5.62c0-.68-.45-1.13-1.13-1.13zM10.13 1.13H18v2.25h-7.88zM10.13 4.5H18v2.25h-7.88zM10.13 11.25H18v2.25h-7.88zM10.13 14.63H18v2.24h-7.88z"/>
    </symbol>
    <symbol id="wbsico-quote-close" viewBox="0 0 22 18">
      <path d="M5.82 13.76c1.66-2.05 1.88-4.1 1.4-5.56-.82.63-1.7.94-2.65.94C2.07 9.14 0 7.48 0 4.57A4.48 4.48 0 0 1 4.57 0C8.3 0 10 3.3 10 6.98v.18c0 2.32-.68 4.49-1.85 6.3l.02-.04c-1.37 2-3.25 3.57-5.45 4.55l-.08.03-.66-1.29A9.76 9.76 0 0 0 5.8 13.8l.02-.03zm12.14 0c1.63-2.05 1.87-4.1 1.38-5.56a4.53 4.53 0 0 1-5.88-.3c-1.55-1.45-1.7-4.02-.68-5.69A4.57 4.57 0 0 1 16.7 0c3.75 0 5.45 3.3 5.45 6.98v.17c0 2.33-.68 4.5-1.85 6.31l.02-.04c-1.37 2-3.25 3.57-5.45 4.55l-.08.03-.65-1.29a9.76 9.76 0 0 0 3.82-2.93l.01-.02z"/>
    </symbol>
    <symbol id="wbsico-quote-open" viewBox="0 0 22 18">
      <path d="M16.34 4.24c-1.66 2.05-1.88 4.12-1.41 5.56a4.23 4.23 0 0 1 2.65-.94c2.51 0 4.57 1.66 4.57 4.57A4.48 4.48 0 0 1 17.6 18c-3.74 0-5.45-3.28-5.45-6.98v-.18c0-2.32.68-4.49 1.86-6.3l-.03.04c1.38-2 3.26-3.58 5.46-4.55L19.5 0l.65 1.29a9.76 9.76 0 0 0-3.82 2.92l-.02.03zm-12.16 0C2.55 6.29 2.31 8.36 2.8 9.8a4.53 4.53 0 0 1 5.88.3c1.57 1.45 1.7 4 .7 5.67A4.57 4.57 0 0 1 5.45 18C1.7 18 0 14.72 0 11.02v-.17c0-2.33.68-4.5 1.86-6.31l-.03.04c1.38-2 3.25-3.57 5.46-4.55L7.37 0l.66 1.29A9.76 9.76 0 0 0 4.2 4.22l-.02.02z"/>
    </symbol>
    <symbol id="wbsico-search" viewBox="0 0 18 18">
      <path d="M7.99 13.53c-3.15 0-5.74-2.46-5.74-5.6a5.74 5.74 0 0 1 11.47 0A5.65 5.65 0 0 1 8 13.54zm6.3-.9A7.9 7.9 0 0 0 7.99 0 8 8 0 0 0 0 7.94a8 8 0 0 0 12.71 6.37l3.38 3.36c.22.22.56.33.78.33s.57-.11.8-.33c.44-.45.44-1.12 0-1.57l-3.38-3.47z"/>
    </symbol>
    <symbol id="wbsico-share" viewBox="0 0 16 18">
      <path d="M12.38 6.75a3.38 3.38 0 1 0-3.3-2.62V4.1L5.46 6.37a3.31 3.31 0 0 0-2.08-.75 3.37 3.37 0 1 0 0 6.75c.79 0 1.5-.28 2.08-.74l3.62 2.26a3.37 3.37 0 1 0 3.3-2.64c-.8 0-1.51.28-2.08.74L6.67 9.73a3.29 3.29 0 0 0 0-1.48v.02L10.3 6c.56.45 1.29.74 2.08.74z"/>
    </symbol>
    <symbol id="wbsico-time" viewBox="0 0 18 18">
      <path d="M9 15.75c-3.71 0-6.75-3.04-6.75-6.75S5.29 2.25 9 2.25 15.75 5.29 15.75 9 12.71 15.75 9 15.75zM9 0C4.05 0 0 4.05 0 9s4.05 9 9 9 9-4.05 9-9-4.05-9-9-9z"/>
      <path d="M10.24 4.5h-1.8V9h4.5V7.2h-2.7z"/>
    </symbol>
    <symbol id="wbsico-views" viewBox="0 0 26 18">
      <path d="M13.1 0C7.15.02 2.08 3.7.02 8.9L0 9a14.1 14.1 0 0 0 13.09 9c5.93-.02 11-3.7 13.06-8.9l.03-.1A14.1 14.1 0 0 0 13.1 0zm0 15a6 6 0 0 1-5.97-6v-.03c0-3.3 2.67-5.97 5.96-5.98a6 6 0 0 1 5.96 6v.04c0 3.3-2.67 5.97-5.96 5.98zm0-9.6a3.6 3.6 0 1 0 0 7.2 3.6 3.6 0 0 0 0-7.2h-.01z"/>
    </symbol>
  </defs>
</svg>
