<svg width="20" height="20" xmlns="http://www.w3.org/2000/svg" xmlns:xlink="http://www.w3.org/1999/xlink"><defs><path id="a" d="M0 .3h12.2v17.8H0z"/><path id="c" d="M.2 0h12.2v17.4H.2z"/></defs><g fill="none" fill-rule="evenodd"><g><mask id="b" fill="#fff"><use xlink:href="#a"/></mask><path d="M8 11.6l-3-1a.3.3 0 0 1-.2-.5L12.1 1c.2-.2 0-.4-.1-.4A9.8 9.8 0 0 0 .8 6 8.8 8.8 0 0 0 0 9.7 9.7 9.7 0 0 0 5.3 18h.3l2.5-6-.1-.4" fill="#FFF" mask="url(#b)"/></g><g transform="translate(6.7 1.8)"><mask id="d" fill="#fff"><use xlink:href="#c"/></mask><path d="M11.6 4.7A9.4 9.4 0 0 0 7.1 0c-.1 0-.3 0-.4.2L4 6.7 4 7l2.8 1.4c.1 0 .2.3 0 .4L.4 16.7c-.2.1 0 .4.1.4a10.1 10.1 0 0 0 9.1-2.4c.9-.9 1.6-1.8 2.1-3a8.3 8.3 0 0 0 0-7" fill="#FFF" mask="url(#d)"/></g></g></svg>